<mxfile host="65bd71144e">
    <diagram id="fKZ_QrzrKByX2544GPnu" name="第 1 页">
        <mxGraphModel dx="6113" dy="1980" grid="1" gridSize="10" guides="1" tooltips="1" connect="1" arrows="1" fold="1" page="1" pageScale="1" pageWidth="1654" pageHeight="2336" math="0" shadow="0">
            <root>
                <mxCell id="0"/>
                <mxCell id="1" parent="0"/>
                <mxCell id="2" value="&lt;div style=&quot;color: rgb(212, 212, 212); background-color: rgb(30, 30, 30); font-family: Consolas, &amp;quot;Courier New&amp;quot;, monospace; font-size: 18px; line-height: 24px;&quot;&gt;&lt;span style=&quot;color: #4ec9b0;&quot;&gt;timespec&lt;/span&gt; &lt;span style=&quot;color: #dcdcaa;&quot;&gt;diff&lt;/span&gt;(&lt;span style=&quot;color: #4ec9b0;&quot;&gt;timespec&lt;/span&gt; &lt;span style=&quot;color: #9cdcfe;&quot;&gt;start&lt;/span&gt;, &lt;span style=&quot;color: #4ec9b0;&quot;&gt;timespec&lt;/span&gt; &lt;span style=&quot;color: #9cdcfe;&quot;&gt;end&lt;/span&gt;)&lt;/div&gt;&lt;div style=&quot;color: rgb(212, 212, 212); background-color: rgb(30, 30, 30); font-family: Consolas, &amp;quot;Courier New&amp;quot;, monospace; font-size: 18px; line-height: 24px;&quot;&gt;输入开始时间和结束时间，返回计算出的时间差temp&lt;/div&gt;" style="rounded=0;whiteSpace=wrap;html=1;" parent="1" vertex="1">
                    <mxGeometry x="-1060" y="30" width="925" height="80" as="geometry"/>
                </mxCell>
                <mxCell id="3" value="&lt;div style=&quot;color: rgb(212, 212, 212); background-color: rgb(30, 30, 30); font-family: Consolas, &amp;quot;Courier New&amp;quot;, monospace; font-size: 18px; line-height: 24px;&quot;&gt;&lt;span style=&quot;color: #6a9955;&quot;&gt;/namespace BAstar_planner { ... } 定义了命名空间 BAstar_planner&lt;/span&gt;&lt;/div&gt;&lt;div style=&quot;background-color: rgb(30, 30, 30); font-family: Consolas, &amp;quot;Courier New&amp;quot;, monospace; font-size: 18px; line-height: 24px;&quot;&gt;&lt;font color=&quot;#6a9955&quot;&gt;同时定义三个构造函数&lt;/font&gt;&lt;/div&gt;" style="rounded=0;whiteSpace=wrap;html=1;" parent="1" vertex="1">
                    <mxGeometry x="-1060" y="170" width="925" height="80" as="geometry"/>
                </mxCell>
                <mxCell id="4" value="&lt;div style=&quot;color: rgb(212, 212, 212); background-color: rgb(30, 30, 30); font-family: Consolas, &amp;quot;Courier New&amp;quot;, monospace; font-size: 18px; line-height: 24px;&quot;&gt;&lt;span style=&quot;color: #4ec9b0;&quot;&gt;BAstarPlannerROS&lt;/span&gt;::&lt;span style=&quot;color: #dcdcaa;&quot;&gt;initialize&lt;/span&gt;(&lt;span style=&quot;color: #4ec9b0;&quot;&gt;std&lt;/span&gt;::&lt;span style=&quot;color: #4ec9b0;&quot;&gt;string&lt;/span&gt; &lt;span style=&quot;color: #9cdcfe;&quot;&gt;name&lt;/span&gt;, &lt;span style=&quot;color: #4ec9b0;&quot;&gt;costmap_2d&lt;/span&gt;::&lt;span style=&quot;color: #4ec9b0;&quot;&gt;Costmap2DROS&lt;/span&gt; &lt;span style=&quot;color: #569cd6;&quot;&gt;*&lt;/span&gt;&lt;span style=&quot;color: #9cdcfe;&quot;&gt;costmap_ros&lt;/span&gt;)&lt;/div&gt;&lt;div style=&quot;color: rgb(212, 212, 212); background-color: rgb(30, 30, 30); font-family: Consolas, &amp;quot;Courier New&amp;quot;, monospace; font-size: 18px; line-height: 24px;&quot;&gt;&lt;div style=&quot;line-height: 24px;&quot;&gt;&lt;span style=&quot;color: #6a9955;&quot;&gt;初始化路径规划器的各项参数，包括代价地图（宽高，分辨率）、节点间距、起点终点等。&lt;/span&gt;&lt;/div&gt;&lt;/div&gt;" style="rounded=0;whiteSpace=wrap;html=1;" parent="1" vertex="1">
                    <mxGeometry x="-1060" y="300" width="925" height="70" as="geometry"/>
                </mxCell>
                <mxCell id="5" value="&lt;div style=&quot;color: rgb(212, 212, 212); background-color: rgb(30, 30, 30); font-family: Consolas, &amp;quot;Courier New&amp;quot;, monospace; font-size: 18px; line-height: 24px;&quot;&gt;&lt;div&gt;&lt;span style=&quot;color: #4ec9b0;&quot;&gt;BAstarPlannerROS&lt;/span&gt;::&lt;span style=&quot;color: #dcdcaa;&quot;&gt;makePlan&lt;/span&gt;(&lt;span style=&quot;color: #569cd6;&quot;&gt;const&lt;/span&gt; &lt;span style=&quot;color: #4ec9b0;&quot;&gt;geometry_msgs&lt;/span&gt;::&lt;span style=&quot;color: #4ec9b0;&quot;&gt;PoseStamped&lt;/span&gt; &lt;span style=&quot;color: #569cd6;&quot;&gt;&amp;amp;&lt;/span&gt;&lt;span style=&quot;color: #9cdcfe;&quot;&gt;start&lt;/span&gt;, &lt;span style=&quot;color: #569cd6;&quot;&gt;const&lt;/span&gt; &lt;span style=&quot;color: #4ec9b0;&quot;&gt;geometry_msgs&lt;/span&gt;::&lt;span style=&quot;color: #4ec9b0;&quot;&gt;PoseStamped&lt;/span&gt; &lt;span style=&quot;color: #569cd6;&quot;&gt;&amp;amp;&lt;/span&gt;&lt;span style=&quot;color: #9cdcfe;&quot;&gt;goal&lt;/span&gt;,&lt;/div&gt;&lt;div&gt;&amp;nbsp; &amp;nbsp; &amp;nbsp; &amp;nbsp; &amp;nbsp; &amp;nbsp; &amp;nbsp; &amp;nbsp; &amp;nbsp; &amp;nbsp; &amp;nbsp; &amp;nbsp; &amp;nbsp; &amp;nbsp; &amp;nbsp; &amp;nbsp; &amp;nbsp; &lt;span style=&quot;color: #4ec9b0;&quot;&gt;std&lt;/span&gt;::&lt;span style=&quot;color: #4ec9b0;&quot;&gt;vector&lt;/span&gt;&amp;lt;&lt;span style=&quot;color: #4ec9b0;&quot;&gt;geometry_msgs&lt;/span&gt;::&lt;span style=&quot;color: #4ec9b0;&quot;&gt;PoseStamped&lt;/span&gt;&amp;gt; &lt;span style=&quot;color: #569cd6;&quot;&gt;&amp;amp;&lt;/span&gt;&lt;span style=&quot;color: #9cdcfe;&quot;&gt;plan&lt;/span&gt;)&lt;/div&gt;&lt;div&gt;&lt;div style=&quot;line-height: 24px;&quot;&gt;&lt;span style=&quot;color: #6a9955;&quot;&gt;ROS机器人路径规划模块中的makePlan函数，用于根据起点和终点规划路径。&lt;/span&gt;&lt;/div&gt;&lt;/div&gt;&lt;div style=&quot;line-height: 24px;&quot;&gt;&lt;span style=&quot;color: #6a9955;&quot;&gt;输入：起始点start,终点goal，以及vector容器存储规划的路径点&lt;/span&gt;&lt;/div&gt;&lt;/div&gt;" style="rounded=0;whiteSpace=wrap;html=1;" parent="1" vertex="1">
                    <mxGeometry x="-1140" y="420" width="1110" height="110" as="geometry"/>
                </mxCell>
                <mxCell id="6" value="" style="endArrow=classic;html=1;" parent="1" edge="1">
                    <mxGeometry relative="1" as="geometry">
                        <mxPoint x="-130" y="420" as="sourcePoint"/>
                        <mxPoint x="30" y="420" as="targetPoint"/>
                    </mxGeometry>
                </mxCell>
                <mxCell id="7" value="Label" style="edgeLabel;resizable=0;html=1;align=center;verticalAlign=middle;" parent="6" connectable="0" vertex="1">
                    <mxGeometry relative="1" as="geometry"/>
                </mxCell>
                <mxCell id="8" value="Source" style="edgeLabel;resizable=0;html=1;align=left;verticalAlign=bottom;" parent="6" connectable="0" vertex="1">
                    <mxGeometry x="-1" relative="1" as="geometry"/>
                </mxCell>
                <mxCell id="12" value="" style="edgeStyle=none;html=1;" parent="1" source="9" target="11" edge="1">
                    <mxGeometry relative="1" as="geometry"/>
                </mxCell>
                <mxCell id="9" value="&lt;div style=&quot;color: rgb(212, 212, 212); background-color: rgb(30, 30, 30); font-family: Consolas, &amp;quot;Courier New&amp;quot;, monospace; font-size: 18px; line-height: 24px;&quot;&gt;&lt;span style=&quot;color: #6a9955;&quot;&gt;判断模块是否已经初始化，如果还没初始化打印出来&lt;/span&gt;&lt;/div&gt;" style="rounded=0;whiteSpace=wrap;html=1;" parent="1" vertex="1">
                    <mxGeometry x="100" y="30" width="530" height="70" as="geometry"/>
                </mxCell>
                <mxCell id="10" value="" style="edgeStyle=elbowEdgeStyle;elbow=horizontal;endArrow=classic;html=1;curved=0;rounded=0;endSize=8;startSize=8;exitX=1;exitY=0.5;exitDx=0;exitDy=0;entryX=0;entryY=0.5;entryDx=0;entryDy=0;" parent="1" source="5" target="9" edge="1">
                    <mxGeometry width="50" height="50" relative="1" as="geometry">
                        <mxPoint x="70" y="460" as="sourcePoint"/>
                        <mxPoint x="120" y="410" as="targetPoint"/>
                    </mxGeometry>
                </mxCell>
                <mxCell id="15" value="" style="edgeStyle=none;html=1;" parent="1" source="11" target="14" edge="1">
                    <mxGeometry relative="1" as="geometry"/>
                </mxCell>
                <mxCell id="11" value="&lt;div style=&quot;color: rgb(212, 212, 212); background-color: rgb(30, 30, 30); font-family: Consolas, &amp;quot;Courier New&amp;quot;, monospace; font-size: 18px; line-height: 24px;&quot;&gt;&lt;span style=&quot;color: #6a9955;&quot;&gt;使用ROS_DEBUG()输出调试信息，以便于后期跟踪问题&lt;/span&gt;&lt;/div&gt;&lt;div style=&quot;color: rgb(212, 212, 212); background-color: rgb(30, 30, 30); font-family: Consolas, &amp;quot;Courier New&amp;quot;, monospace; font-size: 18px; line-height: 24px;&quot;&gt;&lt;span style=&quot;color: #6a9955;&quot;&gt;(打印起点和终点的x和y的坐标)&lt;/span&gt;&lt;/div&gt;" style="rounded=0;whiteSpace=wrap;html=1;" parent="1" vertex="1">
                    <mxGeometry x="100" y="130" width="530" height="70" as="geometry"/>
                </mxCell>
                <mxCell id="17" value="" style="edgeStyle=none;html=1;" parent="1" source="14" target="16" edge="1">
                    <mxGeometry relative="1" as="geometry"/>
                </mxCell>
                <mxCell id="14" value="&lt;div style=&quot;color: rgb(212, 212, 212); background-color: rgb(30, 30, 30); font-family: Consolas, &amp;quot;Courier New&amp;quot;, monospace; font-size: 18px; line-height: 24px;&quot;&gt;&lt;span style=&quot;color: #6a9955;&quot;&gt;清空存储路径规划结果的plan变量，&lt;/span&gt;&lt;/div&gt;" style="rounded=0;whiteSpace=wrap;html=1;" parent="1" vertex="1">
                    <mxGeometry x="100" y="230" width="530" height="60" as="geometry"/>
                </mxCell>
                <mxCell id="19" value="" style="edgeStyle=none;html=1;" parent="1" source="16" target="18" edge="1">
                    <mxGeometry relative="1" as="geometry"/>
                </mxCell>
                <mxCell id="16" value="&lt;div style=&quot;color: rgb(212, 212, 212); background-color: rgb(30, 30, 30); font-family: Consolas, &amp;quot;Courier New&amp;quot;, monospace; font-size: 18px; line-height: 24px;&quot;&gt;&lt;span style=&quot;color: #6a9955;&quot;&gt;检查目标点goal是否在规划地图的全局坐标系中。如果不在，则返回错误信息。&lt;/span&gt;&lt;/div&gt;" style="rounded=0;whiteSpace=wrap;html=1;" parent="1" vertex="1">
                    <mxGeometry x="100" y="320" width="530" height="60" as="geometry"/>
                </mxCell>
                <mxCell id="21" value="" style="edgeStyle=none;html=1;" parent="1" source="18" edge="1">
                    <mxGeometry relative="1" as="geometry">
                        <mxPoint x="365" y="510" as="targetPoint"/>
                    </mxGeometry>
                </mxCell>
                <mxCell id="18" value="&lt;div style=&quot;color: rgb(212, 212, 212); background-color: rgb(30, 30, 30); font-family: Consolas, &amp;quot;Courier New&amp;quot;, monospace; font-size: 18px; line-height: 24px;&quot;&gt;&lt;span style=&quot;color: #6a9955;&quot;&gt;将 ROS 消息中的姿态信息 goal 和 start 转换为 tf::Stamped&amp;lt;tf::Pose&amp;gt; 类型，并将转换后的结果分别存储在 goal_tf 和 start_tf 中&lt;/span&gt;&lt;/div&gt;" style="rounded=0;whiteSpace=wrap;html=1;" parent="1" vertex="1">
                    <mxGeometry x="100" y="420" width="530" height="70" as="geometry"/>
                </mxCell>
                <mxCell id="25" value="" style="edgeStyle=none;html=1;" parent="1" source="22" target="24" edge="1">
                    <mxGeometry relative="1" as="geometry"/>
                </mxCell>
                <mxCell id="22" value="&lt;div style=&quot;color: rgb(212, 212, 212); background-color: rgb(30, 30, 30); font-family: Consolas, &amp;quot;Courier New&amp;quot;, monospace; font-size: 18px; line-height: 24px;&quot;&gt;&lt;span style=&quot;color: #6a9955;&quot;&gt;判断起点和终点是否在地图内部。&lt;/span&gt;&lt;/div&gt;&lt;div style=&quot;color: rgb(212, 212, 212); background-color: rgb(30, 30, 30); font-family: Consolas, &amp;quot;Courier New&amp;quot;, monospace; font-size: 18px; line-height: 24px;&quot;&gt;&lt;span style=&quot;color: #6a9955;&quot;&gt;如果不在，则返回错误信息。这里使用了isCellInsideMap()函数对起点和终点是否在地图内部进行判断。&lt;/span&gt;&lt;/div&gt;&lt;div style=&quot;background-color: rgb(30, 30, 30); font-family: Consolas, &amp;quot;Courier New&amp;quot;, monospace; font-size: 18px; line-height: 24px;&quot;&gt;&lt;font color=&quot;#6a9955&quot;&gt;如果在，就完成&lt;/font&gt;&lt;span style=&quot;color: rgb(106, 153, 85);&quot;&gt;坐标和格子索引之间的转换，&lt;/span&gt;&lt;/div&gt;&lt;span style=&quot;color: rgb(106, 153, 85); font-family: Consolas, &amp;quot;Courier New&amp;quot;, monospace; font-size: 18px; background-color: rgb(30, 30, 30);&quot;&gt;将起点和终点的位置转换为地图上的格子索引。&lt;/span&gt;" style="rounded=0;whiteSpace=wrap;html=1;" parent="1" vertex="1">
                    <mxGeometry x="90" y="510" width="550" height="130" as="geometry"/>
                </mxCell>
                <mxCell id="27" value="" style="edgeStyle=none;html=1;" parent="1" source="24" target="26" edge="1">
                    <mxGeometry relative="1" as="geometry"/>
                </mxCell>
                <mxCell id="24" value="&lt;div style=&quot;color: rgb(212, 212, 212); background-color: rgb(30, 30, 30); font-family: Consolas, &amp;quot;Courier New&amp;quot;, monospace; font-size: 18px; line-height: 24px;&quot;&gt;&lt;span style=&quot;color: #6a9955;&quot;&gt;如果起点和终点都合法，则调用BAstarPlanner函数进行路径规划&lt;/span&gt;&lt;/div&gt;" style="rounded=0;whiteSpace=wrap;html=1;" parent="1" vertex="1">
                    <mxGeometry x="90" y="680" width="550" height="100" as="geometry"/>
                </mxCell>
                <mxCell id="29" value="" style="edgeStyle=none;html=1;" parent="1" source="26" edge="1">
                    <mxGeometry relative="1" as="geometry">
                        <mxPoint x="365" y="960" as="targetPoint"/>
                    </mxGeometry>
                </mxCell>
                <mxCell id="26" value="&lt;div style=&quot;color: rgb(212, 212, 212); background-color: rgb(30, 30, 30); font-family: Consolas, &amp;quot;Courier New&amp;quot;, monospace; font-size: 18px; line-height: 24px;&quot;&gt;bestPath = &lt;span style=&quot;color: #dcdcaa;&quot;&gt;BAstarPlanner&lt;/span&gt;(startCell, goalCell);&lt;/div&gt;&lt;div style=&quot;color: rgb(212, 212, 212); background-color: rgb(30, 30, 30); font-family: Consolas, &amp;quot;Courier New&amp;quot;, monospace; font-size: 18px; line-height: 24px;&quot;&gt;输入：起始索引和终点索引、&lt;/div&gt;&lt;div style=&quot;color: rgb(212, 212, 212); background-color: rgb(30, 30, 30); font-family: Consolas, &amp;quot;Courier New&amp;quot;, monospace; font-size: 18px; line-height: 24px;&quot;&gt;输出:最佳路径bestPath&lt;/div&gt;" style="rounded=0;whiteSpace=wrap;html=1;" parent="1" vertex="1">
                    <mxGeometry x="85" y="830" width="560" height="80" as="geometry"/>
                </mxCell>
                <mxCell id="31" value="如果找到了最佳路径" style="rhombus;whiteSpace=wrap;html=1;fontSize=18;" parent="1" vertex="1">
                    <mxGeometry x="247.5" y="960" width="235" height="120" as="geometry"/>
                </mxCell>
                <mxCell id="33" value="" style="endArrow=classic;html=1;fontSize=18;" parent="1" edge="1">
                    <mxGeometry relative="1" as="geometry">
                        <mxPoint x="360" y="1080" as="sourcePoint"/>
                        <mxPoint x="360" y="1130" as="targetPoint"/>
                    </mxGeometry>
                </mxCell>
                <mxCell id="34" value="是" style="edgeLabel;resizable=0;html=1;align=center;verticalAlign=middle;fontSize=18;" parent="33" connectable="0" vertex="1">
                    <mxGeometry relative="1" as="geometry"/>
                </mxCell>
                <mxCell id="36" value="&lt;div style=&quot;font-family: Consolas, &amp;quot;Courier New&amp;quot;, monospace; font-size: 18px; line-height: 24px;&quot;&gt;&lt;ol style=&quot;box-sizing: border-box; border-width: 0px; border-style: solid; border-color: rgb(229, 231, 235); --tw-border-spacing-x: 0; --tw-border-spacing-y: 0; --tw-translate-x: 0; --tw-translate-y: 0; --tw-rotate: 0; --tw-skew-x: 0; --tw-skew-y: 0; --tw-scale-x: 1; --tw-scale-y: 1; --tw-pan-x: ; --tw-pan-y: ; --tw-pinch-zoom: ; --tw-scroll-snap-strictness: proximity; --tw-ordinal: ; --tw-slashed-zero: ; --tw-numeric-figure: ; --tw-numeric-spacing: ; --tw-numeric-fraction: ; --tw-ring-inset: ; --tw-ring-offset-width: 0px; --tw-ring-offset-color: #fff; --tw-ring-color: rgb(59 130 246 / 0.5); --tw-ring-offset-shadow: 0 0 #0000; --tw-ring-shadow: 0 0 #0000; --tw-shadow: 0 0 #0000; --tw-shadow-colored: 0 0 #0000; --tw-blur: ; --tw-brightness: ; --tw-contrast: ; --tw-grayscale: ; --tw-hue-rotate: ; --tw-invert: ; --tw-saturate: ; --tw-sepia: ; --tw-drop-shadow: ; --tw-backdrop-blur: ; --tw-backdrop-brightness: ; --tw-backdrop-contrast: ; --tw-backdrop-grayscale: ; --tw-backdrop-hue-rotate: ; --tw-backdrop-invert: ; --tw-backdrop-opacity: ; --tw-backdrop-saturate: ; --tw-backdrop-sepia: ; list-style-position: initial; list-style-image: initial; margin: 0px 0px 16px; padding: 0px 0px 0px 2em; font-family: -apple-system, BlinkMacSystemFont, &amp;quot;Segoe UI&amp;quot;, &amp;quot;Noto Sans&amp;quot;, Helvetica, Arial, sans-serif, &amp;quot;apple color emoji&amp;quot;, &amp;quot;segoe ui emoji&amp;quot;; font-size: 14px; text-align: start;&quot;&gt;&lt;li style=&quot;box-sizing: border-box; border-width: 0px; border-style: solid; border-color: rgb(229, 231, 235); --tw-border-spacing-x: 0; --tw-border-spacing-y: 0; --tw-translate-x: 0; --tw-translate-y: 0; --tw-rotate: 0; --tw-skew-x: 0; --tw-skew-y: 0; --tw-scale-x: 1; --tw-scale-y: 1; --tw-pan-x: ; --tw-pan-y: ; --tw-pinch-zoom: ; --tw-scroll-snap-strictness: proximity; --tw-ordinal: ; --tw-slashed-zero: ; --tw-numeric-figure: ; --tw-numeric-spacing: ; --tw-numeric-fraction: ; --tw-ring-inset: ; --tw-ring-offset-width: 0px; --tw-ring-offset-color: #fff; --tw-ring-color: rgb(59 130 246 / 0.5); --tw-ring-offset-shadow: 0 0 #0000; --tw-ring-shadow: 0 0 #0000; --tw-shadow: 0 0 #0000; --tw-shadow-colored: 0 0 #0000; --tw-blur: ; --tw-brightness: ; --tw-contrast: ; --tw-grayscale: ; --tw-hue-rotate: ; --tw-invert: ; --tw-saturate: ; --tw-sepia: ; --tw-drop-shadow: ; --tw-backdrop-blur: ; --tw-backdrop-brightness: ; --tw-backdrop-contrast: ; --tw-backdrop-grayscale: ; --tw-backdrop-hue-rotate: ; --tw-backdrop-invert: ; --tw-backdrop-opacity: ; --tw-backdrop-saturate: ; --tw-backdrop-sepia: ;&quot;&gt;&lt;span style=&quot;background-color: rgb(0, 0, 0);&quot;&gt;&lt;font color=&quot;#00cc00&quot;&gt;如果找到了一条有效的路径（即bestPath.size() &amp;gt; 0），则将其转换为具体的坐标，并计算路径长度并记录。&lt;/font&gt;&lt;/span&gt;&lt;/li&gt;&lt;li style=&quot;box-sizing: border-box; border-width: 0px; border-style: solid; border-color: rgb(229, 231, 235); --tw-border-spacing-x: 0; --tw-border-spacing-y: 0; --tw-translate-x: 0; --tw-translate-y: 0; --tw-rotate: 0; --tw-skew-x: 0; --tw-skew-y: 0; --tw-scale-x: 1; --tw-scale-y: 1; --tw-pan-x: ; --tw-pan-y: ; --tw-pinch-zoom: ; --tw-scroll-snap-strictness: proximity; --tw-ordinal: ; --tw-slashed-zero: ; --tw-numeric-figure: ; --tw-numeric-spacing: ; --tw-numeric-fraction: ; --tw-ring-inset: ; --tw-ring-offset-width: 0px; --tw-ring-offset-color: #fff; --tw-ring-color: rgb(59 130 246 / 0.5); --tw-ring-offset-shadow: 0 0 #0000; --tw-ring-shadow: 0 0 #0000; --tw-shadow: 0 0 #0000; --tw-shadow-colored: 0 0 #0000; --tw-blur: ; --tw-brightness: ; --tw-contrast: ; --tw-grayscale: ; --tw-hue-rotate: ; --tw-invert: ; --tw-saturate: ; --tw-sepia: ; --tw-drop-shadow: ; --tw-backdrop-blur: ; --tw-backdrop-brightness: ; --tw-backdrop-contrast: ; --tw-backdrop-grayscale: ; --tw-backdrop-hue-rotate: ; --tw-backdrop-invert: ; --tw-backdrop-opacity: ; --tw-backdrop-saturate: ; --tw-backdrop-sepia: ; margin-top: 0.25em;&quot;&gt;&lt;span style=&quot;background-color: rgb(0, 0, 0);&quot;&gt;&lt;font color=&quot;#00cc00&quot;&gt;将路径规划结果发布出去。首先将位姿点转换为ROS可识别的nav_msgs::Path消息，然后使用ROS话题发布机制将其发布出去。&lt;/font&gt;&lt;/span&gt;&lt;/li&gt;&lt;/ol&gt;&lt;/div&gt;" style="rounded=0;whiteSpace=wrap;html=1;" parent="1" vertex="1">
                    <mxGeometry x="30" y="1130" width="650" height="130" as="geometry"/>
                </mxCell>
                <mxCell id="40" value="" style="endArrow=classic;html=1;fontSize=18;fontColor=#00CC00;" parent="1" edge="1">
                    <mxGeometry relative="1" as="geometry">
                        <mxPoint x="480" y="1020" as="sourcePoint"/>
                        <mxPoint x="580" y="1020" as="targetPoint"/>
                    </mxGeometry>
                </mxCell>
                <mxCell id="41" value="否" style="edgeLabel;resizable=0;html=1;align=center;verticalAlign=middle;labelBackgroundColor=#000000;fontSize=18;fontColor=#00CC00;" parent="40" connectable="0" vertex="1">
                    <mxGeometry relative="1" as="geometry"/>
                </mxCell>
                <mxCell id="42" value="&lt;div style=&quot;color: rgb(212, 212, 212); background-color: rgb(30, 30, 30); font-family: Consolas, &amp;quot;Courier New&amp;quot;, monospace; line-height: 24px;&quot;&gt;&lt;span style=&quot;color: #dcdcaa;&quot;&gt;ROS_WARN&lt;/span&gt;(&lt;span style=&quot;color: #ce9178;&quot;&gt;&quot;Not valid start or goal&quot;&lt;/span&gt;);&lt;/div&gt;" style="rounded=0;whiteSpace=wrap;html=1;labelBackgroundColor=#000000;fontSize=18;fontColor=#00CC00;" parent="1" vertex="1">
                    <mxGeometry x="580" y="990" width="270" height="70" as="geometry"/>
                </mxCell>
                <mxCell id="43" value="&lt;font style=&quot;font-size: 21px;&quot;&gt;&lt;span style=&quot;font-family: Consolas, &amp;quot;Courier New&amp;quot;, monospace; color: rgb(78, 201, 176);&quot;&gt;BAstarPlannerROS&lt;/span&gt;&lt;span style=&quot;background-color: rgb(30, 30, 30); color: rgb(212, 212, 212); font-family: Consolas, &amp;quot;Courier New&amp;quot;, monospace;&quot;&gt;::&lt;/span&gt;&lt;span style=&quot;font-family: Consolas, &amp;quot;Courier New&amp;quot;, monospace; color: rgb(220, 220, 170);&quot;&gt;getCorrdinate&lt;/span&gt;&lt;span style=&quot;background-color: rgb(30, 30, 30); color: rgb(212, 212, 212); font-family: Consolas, &amp;quot;Courier New&amp;quot;, monospace;&quot;&gt;(&lt;/span&gt;&lt;span style=&quot;font-family: Consolas, &amp;quot;Courier New&amp;quot;, monospace; color: rgb(86, 156, 214);&quot;&gt;float&lt;/span&gt;&lt;span style=&quot;background-color: rgb(30, 30, 30); color: rgb(212, 212, 212); font-family: Consolas, &amp;quot;Courier New&amp;quot;, monospace;&quot;&gt; &lt;/span&gt;&lt;span style=&quot;font-family: Consolas, &amp;quot;Courier New&amp;quot;, monospace; color: rgb(86, 156, 214);&quot;&gt;&amp;amp;&lt;/span&gt;&lt;span style=&quot;font-family: Consolas, &amp;quot;Courier New&amp;quot;, monospace; color: rgb(156, 220, 254);&quot;&gt;x&lt;/span&gt;&lt;span style=&quot;background-color: rgb(30, 30, 30); color: rgb(212, 212, 212); font-family: Consolas, &amp;quot;Courier New&amp;quot;, monospace;&quot;&gt;, &lt;/span&gt;&lt;span style=&quot;font-family: Consolas, &amp;quot;Courier New&amp;quot;, monospace; color: rgb(86, 156, 214);&quot;&gt;float&lt;/span&gt;&lt;span style=&quot;background-color: rgb(30, 30, 30); color: rgb(212, 212, 212); font-family: Consolas, &amp;quot;Courier New&amp;quot;, monospace;&quot;&gt; &lt;/span&gt;&lt;span style=&quot;font-family: Consolas, &amp;quot;Courier New&amp;quot;, monospace; color: rgb(86, 156, 214);&quot;&gt;&amp;amp;&lt;/span&gt;&lt;span style=&quot;font-family: Consolas, &amp;quot;Courier New&amp;quot;, monospace; color: rgb(156, 220, 254);&quot;&gt;y&lt;/span&gt;&lt;span style=&quot;background-color: rgb(30, 30, 30); color: rgb(212, 212, 212); font-family: Consolas, &amp;quot;Courier New&amp;quot;, monospace;&quot;&gt;)&lt;br&gt;&lt;/span&gt;&lt;span style=&quot;font-family: -apple-system, BlinkMacSystemFont, &amp;quot;Segoe UI&amp;quot;, &amp;quot;Noto Sans&amp;quot;, Helvetica, Arial, sans-serif, &amp;quot;apple color emoji&amp;quot;, &amp;quot;segoe ui emoji&amp;quot;; text-align: start; background-color: rgb(26, 26, 26);&quot;&gt;&lt;font style=&quot;font-size: 21px;&quot; color=&quot;#33ff33&quot;&gt;用于将输入的x、y坐标转换成相对于地图原点的实际坐标&lt;/font&gt;&lt;/span&gt;&lt;/font&gt;" style="rounded=0;whiteSpace=wrap;html=1;labelBackgroundColor=#000000;fontSize=18;fontColor=#00CC00;strokeColor=#808080;" parent="1" vertex="1">
                    <mxGeometry x="-1140" y="600" width="1110" height="80" as="geometry"/>
                </mxCell>
                <mxCell id="44" value="&lt;div style=&quot;color: rgb(212, 212, 212); background-color: rgb(30, 30, 30); font-family: Consolas, &amp;quot;Courier New&amp;quot;, monospace; font-size: 18px; line-height: 24px;&quot;&gt;&lt;span style=&quot;color: rgb(86, 156, 214);&quot;&gt;int&amp;nbsp;&lt;/span&gt;&lt;span style=&quot;color: #4ec9b0;&quot;&gt;BAstarPlannerROS&lt;/span&gt;::&lt;span style=&quot;color: #dcdcaa;&quot;&gt;convertToCellIndex&lt;/span&gt;(&lt;span style=&quot;color: #569cd6;&quot;&gt;float&lt;/span&gt; &lt;span style=&quot;color: #9cdcfe;&quot;&gt;x&lt;/span&gt;, &lt;span style=&quot;color: #569cd6;&quot;&gt;float&lt;/span&gt; &lt;span style=&quot;color: #9cdcfe;&quot;&gt;y&lt;/span&gt;)&lt;/div&gt;&lt;div style=&quot;color: rgb(212, 212, 212); background-color: rgb(30, 30, 30); font-family: Consolas, &amp;quot;Courier New&amp;quot;, monospace; font-size: 18px; line-height: 24px;&quot;&gt;&lt;div style=&quot;line-height: 24px;&quot;&gt;&lt;span style=&quot;color: #6a9955;&quot;&gt;将机器人当前实际坐标转换为其在栅格地图中的网格坐标，并返回机器人当前所处网格的索引。&lt;/span&gt;&lt;/div&gt;&lt;/div&gt;" style="rounded=0;whiteSpace=wrap;html=1;labelBackgroundColor=#1A1A1A;strokeColor=#808080;fontSize=21;fontColor=#33FF33;" parent="1" vertex="1">
                    <mxGeometry x="-1140" y="730" width="1110" height="80" as="geometry"/>
                </mxCell>
                <mxCell id="45" value="&lt;div style=&quot;color: rgb(212, 212, 212); background-color: rgb(30, 30, 30); font-family: Consolas, &amp;quot;Courier New&amp;quot;, monospace; font-size: 18px; line-height: 24px;&quot;&gt;&lt;span style=&quot;color: #569cd6;&quot;&gt;void&lt;/span&gt; &lt;span style=&quot;color: #4ec9b0;&quot;&gt;BAstarPlannerROS&lt;/span&gt;::&lt;span style=&quot;color: #dcdcaa;&quot;&gt;convertToCoordinate&lt;/span&gt;(&lt;span style=&quot;color: #569cd6;&quot;&gt;int&lt;/span&gt; &lt;span style=&quot;color: #9cdcfe;&quot;&gt;index&lt;/span&gt;, &lt;span style=&quot;color: #569cd6;&quot;&gt;float&lt;/span&gt; &lt;span style=&quot;color: #569cd6;&quot;&gt;&amp;amp;&lt;/span&gt;&lt;span style=&quot;color: #9cdcfe;&quot;&gt;x&lt;/span&gt;, &lt;span style=&quot;color: #569cd6;&quot;&gt;float&lt;/span&gt; &lt;span style=&quot;color: #569cd6;&quot;&gt;&amp;amp;&lt;/span&gt;&lt;span style=&quot;color: #9cdcfe;&quot;&gt;y&lt;/span&gt;)&lt;/div&gt;&lt;div style=&quot;color: rgb(212, 212, 212); background-color: rgb(30, 30, 30); font-family: Consolas, &amp;quot;Courier New&amp;quot;, monospace; font-size: 18px; line-height: 24px;&quot;&gt;&lt;div style=&quot;line-height: 24px;&quot;&gt;&lt;span style=&quot;color: #6a9955;&quot;&gt;将在栅格地图中获取的网格坐标转换为机器人在实际世界中的坐标(x, y)。&lt;/span&gt;&lt;/div&gt;&lt;/div&gt;" style="rounded=0;whiteSpace=wrap;html=1;labelBackgroundColor=#1A1A1A;strokeColor=#808080;fontSize=21;fontColor=#33FF33;" parent="1" vertex="1">
                    <mxGeometry x="-1140" y="860" width="1120" height="90" as="geometry"/>
                </mxCell>
                <mxCell id="46" value="&lt;div style=&quot;color: rgb(212, 212, 212); background-color: rgb(30, 30, 30); font-family: Consolas, &amp;quot;Courier New&amp;quot;, monospace; font-size: 18px; line-height: 24px;&quot;&gt;&lt;span style=&quot;color: #569cd6;&quot;&gt;bool&lt;/span&gt; &lt;span style=&quot;color: #4ec9b0;&quot;&gt;BAstarPlannerROS&lt;/span&gt;::&lt;span style=&quot;color: #dcdcaa;&quot;&gt;isCellInsideMap&lt;/span&gt;(&lt;span style=&quot;color: #569cd6;&quot;&gt;float&lt;/span&gt; &lt;span style=&quot;color: #9cdcfe;&quot;&gt;x&lt;/span&gt;, &lt;span style=&quot;color: #569cd6;&quot;&gt;float&lt;/span&gt; &lt;span style=&quot;color: #9cdcfe;&quot;&gt;y&lt;/span&gt;)&lt;/div&gt;&lt;div style=&quot;color: rgb(212, 212, 212); background-color: rgb(30, 30, 30); font-family: Consolas, &amp;quot;Courier New&amp;quot;, monospace; font-size: 18px; line-height: 24px;&quot;&gt;&lt;div style=&quot;line-height: 24px;&quot;&gt;&lt;span style=&quot;color: #6a9955;&quot;&gt;//判断点是否在地图内&lt;/span&gt;&lt;/div&gt;&lt;/div&gt;" style="rounded=0;whiteSpace=wrap;html=1;labelBackgroundColor=#1A1A1A;strokeColor=#808080;fontSize=21;fontColor=#33FF33;" parent="1" vertex="1">
                    <mxGeometry x="-1140" y="1000" width="1120" height="70" as="geometry"/>
                </mxCell>
                <mxCell id="47" value="&lt;div style=&quot;color: rgb(212, 212, 212); background-color: rgb(30, 30, 30); font-family: Consolas, &amp;quot;Courier New&amp;quot;, monospace; font-size: 18px; line-height: 24px;&quot;&gt;&lt;span style=&quot;color: #569cd6;&quot;&gt;void&lt;/span&gt; &lt;span style=&quot;color: #4ec9b0;&quot;&gt;BAstarPlannerROS&lt;/span&gt;::&lt;span style=&quot;color: #dcdcaa;&quot;&gt;mapToWorld&lt;/span&gt;(&lt;span style=&quot;color: #569cd6;&quot;&gt;double&lt;/span&gt; &lt;span style=&quot;color: #9cdcfe;&quot;&gt;mx&lt;/span&gt;, &lt;span style=&quot;color: #569cd6;&quot;&gt;double&lt;/span&gt; &lt;span style=&quot;color: #9cdcfe;&quot;&gt;my&lt;/span&gt;, &lt;span style=&quot;color: #569cd6;&quot;&gt;double&lt;/span&gt; &lt;span style=&quot;color: #569cd6;&quot;&gt;&amp;amp;&lt;/span&gt;&lt;span style=&quot;color: #9cdcfe;&quot;&gt;wx&lt;/span&gt;, &lt;span style=&quot;color: #569cd6;&quot;&gt;double&lt;/span&gt; &lt;span style=&quot;color: #569cd6;&quot;&gt;&amp;amp;&lt;/span&gt;&lt;span style=&quot;color: #9cdcfe;&quot;&gt;wy&lt;/span&gt;)&lt;/div&gt;&lt;div style=&quot;color: rgb(212, 212, 212); background-color: rgb(30, 30, 30); font-family: Consolas, &amp;quot;Courier New&amp;quot;, monospace; font-size: 18px; line-height: 24px;&quot;&gt;&lt;div style=&quot;line-height: 24px;&quot;&gt;&lt;span style=&quot;color: #6a9955;&quot;&gt;将栅格地图中的坐标(mx, my)转换为实际坐标系下的坐标(wx, wy)&lt;/span&gt;&lt;/div&gt;&lt;div style=&quot;line-height: 24px;&quot;&gt;&lt;div style=&quot;line-height: 24px;&quot;&gt;&lt;span style=&quot;color: #6a9955;&quot;&gt;并将结果存储在输出变量wx和wy中。&lt;/span&gt;&lt;/div&gt;&lt;/div&gt;&lt;/div&gt;" style="rounded=0;whiteSpace=wrap;html=1;labelBackgroundColor=#1A1A1A;strokeColor=#808080;fontSize=21;fontColor=#33FF33;" parent="1" vertex="1">
                    <mxGeometry x="-1140" y="1110" width="1120" height="80" as="geometry"/>
                </mxCell>
                <mxCell id="48" value="&lt;div style=&quot;color: rgb(212, 212, 212); background-color: rgb(30, 30, 30); font-family: Consolas, &amp;quot;Courier New&amp;quot;, monospace; font-size: 18px; line-height: 24px;&quot;&gt;&amp;nbsp;&lt;span style=&quot;color: #4ec9b0;&quot;&gt;vector&lt;/span&gt;&amp;lt;&lt;span style=&quot;color: #569cd6;&quot;&gt;int&lt;/span&gt;&amp;gt; &lt;span style=&quot;color: #4ec9b0;&quot;&gt;BAstarPlannerROS&lt;/span&gt;::&lt;span style=&quot;color: #dcdcaa;&quot;&gt;BAstarPlanner&lt;/span&gt;(&lt;span style=&quot;color: #569cd6;&quot;&gt;int&lt;/span&gt; &lt;span style=&quot;color: #9cdcfe;&quot;&gt;startCell&lt;/span&gt;, &lt;span style=&quot;color: #569cd6;&quot;&gt;int&lt;/span&gt; &lt;span style=&quot;color: #9cdcfe;&quot;&gt;goalCell&lt;/span&gt;)&lt;/div&gt;&lt;div style=&quot;color: rgb(212, 212, 212); background-color: rgb(30, 30, 30); font-family: Consolas, &amp;quot;Courier New&amp;quot;, monospace; font-size: 18px; line-height: 24px;&quot;&gt;&lt;div style=&quot;line-height: 24px;&quot;&gt;&lt;span style=&quot;color: #6a9955;&quot;&gt;函数BAstarPlanner接收机器人当前的栅格地图中的起始位置(startCell)和目标位置(goalCell)，并返回一条最佳路径。&lt;/span&gt;&lt;/div&gt;&lt;div style=&quot;line-height: 24px;&quot;&gt;&lt;span style=&quot;color: #6a9955;&quot;&gt;同时把生成A*路径的时间写入excel文件中&lt;/span&gt;&lt;/div&gt;&lt;/div&gt;" style="rounded=0;whiteSpace=wrap;html=1;labelBackgroundColor=#1A1A1A;strokeColor=#808080;fontSize=21;fontColor=#33FF33;" parent="1" vertex="1">
                    <mxGeometry x="-1140" y="1270" width="1120" height="110" as="geometry"/>
                </mxCell>
                <mxCell id="49" value="&lt;div style=&quot;color: rgb(212, 212, 212); background-color: rgb(30, 30, 30); font-family: Consolas, &amp;quot;Courier New&amp;quot;, monospace; font-size: 18px; line-height: 24px;&quot;&gt;&lt;span style=&quot;color: #6a9955;&quot;&gt;A*算法实现的主要代码&lt;/span&gt;&lt;/div&gt;&lt;div style=&quot;background-color: rgb(30, 30, 30); font-family: Consolas, &amp;quot;Courier New&amp;quot;, monospace; font-size: 18px; line-height: 24px;&quot;&gt;&lt;div style=&quot;color: rgb(212, 212, 212); line-height: 24px;&quot;&gt;&amp;nbsp;&lt;span style=&quot;color: #4ec9b0;&quot;&gt;vector&lt;/span&gt;&amp;lt;&lt;span style=&quot;color: #569cd6;&quot;&gt;int&lt;/span&gt;&amp;gt; &lt;span style=&quot;color: #4ec9b0;&quot;&gt;BAstarPlannerROS&lt;/span&gt;::&lt;span style=&quot;color: #dcdcaa;&quot;&gt;findPath&lt;/span&gt;(&lt;span style=&quot;color: #569cd6;&quot;&gt;int&lt;/span&gt; &lt;span style=&quot;color: #9cdcfe;&quot;&gt;startCell&lt;/span&gt;, &lt;span style=&quot;color: #569cd6;&quot;&gt;int&lt;/span&gt; &lt;span style=&quot;color: #9cdcfe;&quot;&gt;goalCell&lt;/span&gt;, &lt;span style=&quot;color: #569cd6;&quot;&gt;float&lt;/span&gt; &lt;span style=&quot;color: #9cdcfe;&quot;&gt;g_score&lt;/span&gt;[])&lt;/div&gt;&lt;div style=&quot;line-height: 24px;&quot;&gt;&lt;div style=&quot;color: rgb(212, 212, 212); line-height: 24px;&quot;&gt;&lt;span style=&quot;color: #6a9955;&quot;&gt;被调用时传入了起始位置startCell，目标位置goalCell以及代价值数组g_score[],&lt;/span&gt;&lt;/div&gt;&lt;div style=&quot;line-height: 24px;&quot;&gt;&lt;font color=&quot;#6a9955&quot;&gt;输出：最佳路径&lt;/font&gt;&lt;/div&gt;&lt;div style=&quot;line-height: 24px;&quot;&gt;&lt;font color=&quot;#6a9955&quot;&gt;该函数主要负责从起点搜索到终点，搜索到终点后&lt;/font&gt;&lt;/div&gt;&lt;div style=&quot;line-height: 24px;&quot;&gt;&lt;font color=&quot;#6a9955&quot;&gt;调用&lt;/font&gt;&lt;span style=&quot;color: rgb(212, 212, 212);&quot;&gt;bestPath = &lt;/span&gt;&lt;span style=&quot;color: rgb(220, 220, 170);&quot;&gt;constructPath&lt;/span&gt;&lt;span style=&quot;color: rgb(212, 212, 212);&quot;&gt;(startCell, goalCell, g_score)得到最好路径&lt;/span&gt;&lt;/div&gt;&lt;/div&gt;&lt;/div&gt;" style="rounded=0;whiteSpace=wrap;html=1;labelBackgroundColor=#1A1A1A;strokeColor=#808080;fontSize=21;fontColor=#33FF33;" parent="1" vertex="1">
                    <mxGeometry x="-1140" y="1400" width="1120" height="160" as="geometry"/>
                </mxCell>
                <mxCell id="50" value="&lt;div style=&quot;color: rgb(212, 212, 212); background-color: rgb(30, 30, 30); font-family: Consolas, &amp;quot;Courier New&amp;quot;, monospace; font-size: 18px; line-height: 24px;&quot;&gt;&lt;span style=&quot;color: #4ec9b0;&quot;&gt;vector&lt;/span&gt;&amp;lt;&lt;span style=&quot;color: #569cd6;&quot;&gt;int&lt;/span&gt;&amp;gt; &lt;span style=&quot;color: #4ec9b0;&quot;&gt;BAstarPlannerROS&lt;/span&gt;::&lt;span style=&quot;color: #dcdcaa;&quot;&gt;constructPath&lt;/span&gt;(&lt;span style=&quot;color: #569cd6;&quot;&gt;int&lt;/span&gt; &lt;span style=&quot;color: #9cdcfe;&quot;&gt;startCell&lt;/span&gt;, &lt;span style=&quot;color: #569cd6;&quot;&gt;int&lt;/span&gt; &lt;span style=&quot;color: #9cdcfe;&quot;&gt;goalCell&lt;/span&gt;, &lt;span style=&quot;color: #569cd6;&quot;&gt;float&lt;/span&gt; &lt;span style=&quot;color: #9cdcfe;&quot;&gt;g_score&lt;/span&gt;[])&lt;/div&gt;&lt;div style=&quot;color: rgb(212, 212, 212); background-color: rgb(30, 30, 30); font-family: Consolas, &amp;quot;Courier New&amp;quot;, monospace; font-size: 18px; line-height: 24px;&quot;&gt;&lt;br&gt;&lt;/div&gt;&lt;div style=&quot;color: rgb(212, 212, 212); background-color: rgb(30, 30, 30); font-family: Consolas, &amp;quot;Courier New&amp;quot;, monospace; font-size: 18px; line-height: 24px;&quot;&gt;该函数主要是&lt;span style=&quot;color: rgb(106, 153, 85);&quot;&gt;根据起点和终点从后往前回溯，&lt;/span&gt;&lt;/div&gt;&lt;div style=&quot;color: rgb(212, 212, 212); background-color: rgb(30, 30, 30); font-family: Consolas, &amp;quot;Courier New&amp;quot;, monospace; font-size: 18px; line-height: 24px;&quot;&gt;&lt;div&gt;&lt;span style=&quot;color: #6a9955;&quot;&gt;找到代价值最小的节点，并将其加入路径中，不断迭代，直到回溯到起点。最后，使用逆向的方式，生成可行的最优路径bestPath。&lt;/span&gt;&lt;/div&gt;&lt;/div&gt;" style="rounded=0;whiteSpace=wrap;html=1;labelBackgroundColor=#1A1A1A;strokeColor=#808080;fontSize=21;fontColor=#33FF33;" parent="1" vertex="1">
                    <mxGeometry x="-1140" y="1610" width="1120" height="140" as="geometry"/>
                </mxCell>
                <mxCell id="51" value="" style="edgeStyle=elbowEdgeStyle;elbow=horizontal;endArrow=classic;html=1;curved=0;rounded=0;endSize=8;startSize=8;fontSize=21;fontColor=#33FF33;exitX=0;exitY=0.5;exitDx=0;exitDy=0;" parent="1" source="49" edge="1">
                    <mxGeometry width="50" height="50" relative="1" as="geometry">
                        <mxPoint x="-1350" y="1510" as="sourcePoint"/>
                        <mxPoint x="-1980" y="100" as="targetPoint"/>
                    </mxGeometry>
                </mxCell>
                <mxCell id="54" value="" style="edgeStyle=none;html=1;" edge="1" parent="1" source="52" target="53">
                    <mxGeometry relative="1" as="geometry"/>
                </mxCell>
                <mxCell id="52" value="&lt;div style=&quot;color: rgb(212, 212, 212); background-color: rgb(30, 30, 30); font-family: Consolas, &amp;quot;Courier New&amp;quot;, monospace; font-size: 18px; line-height: 24px;&quot;&gt;&lt;div&gt;vector&amp;lt;&lt;span style=&quot;color: #569cd6;&quot;&gt;int&lt;/span&gt;&amp;gt; bestPath;&lt;/div&gt;&lt;div&gt;&amp;nbsp; &amp;nbsp; vector&amp;lt;&lt;span style=&quot;color: #569cd6;&quot;&gt;int&lt;/span&gt;&amp;gt; emptyPath;&lt;/div&gt;&lt;div&gt;&amp;nbsp; &amp;nbsp; cells CP;&lt;/div&gt;&lt;/div&gt;" style="rounded=0;whiteSpace=wrap;html=1;" vertex="1" parent="1">
                    <mxGeometry x="-2320" y="50" width="340" height="90" as="geometry"/>
                </mxCell>
                <mxCell id="56" value="" style="edgeStyle=none;html=1;" edge="1" parent="1" source="53" target="55">
                    <mxGeometry relative="1" as="geometry"/>
                </mxCell>
                <mxCell id="53" value="&#10;&lt;div style=&quot;color: rgb(212, 212, 212); background-color: rgb(30, 30, 30); font-family: Consolas, &amp;quot;Courier New&amp;quot;, monospace; font-weight: normal; font-size: 18px; line-height: 24px;&quot;&gt;&lt;div&gt;&lt;span style=&quot;color: #d4d4d4;&quot;&gt;&amp;nbsp;multiset&amp;lt;cells&amp;gt; OPL;&lt;/span&gt;&lt;/div&gt;&lt;div&gt;&lt;span style=&quot;color: #d4d4d4;&quot;&gt;&amp;nbsp; &amp;nbsp; &lt;/span&gt;&lt;span style=&quot;color: #569cd6;&quot;&gt;int&lt;/span&gt;&lt;span style=&quot;color: #d4d4d4;&quot;&gt; currentCell;&lt;/span&gt;&lt;/div&gt;&lt;/div&gt;&#10;&#10;" style="whiteSpace=wrap;html=1;rounded=0;" vertex="1" parent="1">
                    <mxGeometry x="-2320" y="180" width="340" height="80" as="geometry"/>
                </mxCell>
                <mxCell id="58" value="" style="edgeStyle=none;html=1;" edge="1" parent="1" source="55" target="57">
                    <mxGeometry relative="1" as="geometry"/>
                </mxCell>
                <mxCell id="55" value="计算开始点的G值和F值" style="rounded=0;whiteSpace=wrap;html=1;" vertex="1" parent="1">
                    <mxGeometry x="-2320" y="305" width="340" height="75" as="geometry"/>
                </mxCell>
                <mxCell id="60" value="" style="edgeStyle=none;html=1;" edge="1" parent="1" source="57" target="59">
                    <mxGeometry relative="1" as="geometry"/>
                </mxCell>
                <mxCell id="57" value="&lt;div style=&quot;color: rgb(212, 212, 212); background-color: rgb(30, 30, 30); font-family: Consolas, &amp;quot;Courier New&amp;quot;, monospace; font-size: 18px; line-height: 24px;&quot;&gt;&lt;div&gt;&amp;nbsp; &amp;nbsp; &lt;span style=&quot;color: #9cdcfe;&quot;&gt;CP&lt;/span&gt;.&lt;span style=&quot;color: #9cdcfe;&quot;&gt;currentCell&lt;/span&gt; = startCell;&lt;/div&gt;&lt;div&gt;&lt;span style=&quot;color: #6a9955;&quot;&gt;&amp;nbsp; &amp;nbsp; //F=G+H A*算法的公式&lt;/span&gt;&lt;/div&gt;&lt;div&gt;&amp;nbsp; &amp;nbsp; &lt;span style=&quot;color: #9cdcfe;&quot;&gt;CP&lt;/span&gt;.&lt;span style=&quot;color: #9cdcfe;&quot;&gt;fCost&lt;/span&gt; = &lt;span style=&quot;color: #9cdcfe;&quot;&gt;g_score&lt;/span&gt;[startCell] + &lt;span style=&quot;color: #dcdcaa;&quot;&gt;calculateHCost&lt;/span&gt;(startCell, goalCell);&lt;/div&gt;&lt;/div&gt;" style="rounded=0;whiteSpace=wrap;html=1;" vertex="1" parent="1">
                    <mxGeometry x="-2440" y="430" width="580" height="120" as="geometry"/>
                </mxCell>
                <mxCell id="62" value="" style="edgeStyle=none;html=1;" edge="1" parent="1" source="59" target="61">
                    <mxGeometry relative="1" as="geometry"/>
                </mxCell>
                <mxCell id="59" value="然后把开始点添加进openlist中" style="whiteSpace=wrap;html=1;rounded=0;" vertex="1" parent="1">
                    <mxGeometry x="-2445" y="610" width="590" height="80" as="geometry"/>
                </mxCell>
                <mxCell id="61" value="&lt;div style=&quot;color: rgb(212, 212, 212); background-color: rgb(30, 30, 30); font-family: Consolas, &amp;quot;Courier New&amp;quot;, monospace; font-size: 18px; line-height: 24px;&quot;&gt;&lt;span style=&quot;color: #6a9955;&quot;&gt;当openlist列表不为空&lt;/span&gt;&lt;/div&gt;&lt;div style=&quot;color: rgb(212, 212, 212); background-color: rgb(30, 30, 30); font-family: Consolas, &amp;quot;Courier New&amp;quot;, monospace; font-size: 18px; line-height: 24px;&quot;&gt;&lt;span style=&quot;color: #6a9955;&quot;&gt;和还没搜索到终点时&lt;/span&gt;&lt;/div&gt;" style="rhombus;whiteSpace=wrap;html=1;" vertex="1" parent="1">
                    <mxGeometry x="-2285" y="730" width="270" height="170" as="geometry"/>
                </mxCell>
                <mxCell id="63" value="是" style="endArrow=classic;html=1;" edge="1" parent="1">
                    <mxGeometry relative="1" as="geometry">
                        <mxPoint x="-2150" y="900" as="sourcePoint"/>
                        <mxPoint x="-2150" y="960" as="targetPoint"/>
                    </mxGeometry>
                </mxCell>
                <mxCell id="64" value="是" style="edgeLabel;resizable=0;html=1;align=center;verticalAlign=middle;" connectable="0" vertex="1" parent="63">
                    <mxGeometry relative="1" as="geometry"/>
                </mxCell>
                <mxCell id="67" value="" style="edgeStyle=none;html=1;fontSize=18;" edge="1" parent="1" source="65" target="66">
                    <mxGeometry relative="1" as="geometry"/>
                </mxCell>
                <mxCell id="65" value="&lt;font style=&quot;font-size: 18px;&quot;&gt;选择openlist列表中f值最小的作为当前节点&lt;/font&gt;" style="rounded=0;whiteSpace=wrap;html=1;" vertex="1" parent="1">
                    <mxGeometry x="-2450" y="960" width="590" height="60" as="geometry"/>
                </mxCell>
                <mxCell id="69" value="" style="edgeStyle=none;html=1;fontSize=18;" edge="1" parent="1" source="66" target="68">
                    <mxGeometry relative="1" as="geometry"/>
                </mxCell>
                <mxCell id="66" value="然后把该节点从openlist中移除掉" style="rounded=0;whiteSpace=wrap;html=1;fontSize=18;" vertex="1" parent="1">
                    <mxGeometry x="-2445" y="1060" width="585" height="60" as="geometry"/>
                </mxCell>
                <mxCell id="73" value="" style="edgeStyle=none;html=1;fontSize=18;" edge="1" parent="1" source="68" target="72">
                    <mxGeometry relative="1" as="geometry"/>
                </mxCell>
                <mxCell id="68" value="搜索当前节点的邻近节点&lt;br&gt;如果邻接节点的G值为无穷大，说明该点还没搜索到&lt;br&gt;搜索到了，就更新G值，然后把该点添加到openlist中" style="whiteSpace=wrap;html=1;fontSize=18;rounded=0;" vertex="1" parent="1">
                    <mxGeometry x="-2440" y="1160" width="580" height="140" as="geometry"/>
                </mxCell>
                <mxCell id="71" value="" style="edgeStyle=elbowEdgeStyle;elbow=horizontal;endArrow=classic;html=1;curved=0;rounded=0;endSize=8;startSize=8;fontSize=18;entryX=0.97;entryY=0.482;entryDx=0;entryDy=0;entryPerimeter=0;" edge="1" parent="1" target="61">
                    <mxGeometry width="50" height="50" relative="1" as="geometry">
                        <mxPoint x="-1860" y="1230" as="sourcePoint"/>
                        <mxPoint x="-1810" y="1180" as="targetPoint"/>
                        <Array as="points">
                            <mxPoint x="-1800" y="1000"/>
                        </Array>
                    </mxGeometry>
                </mxCell>
                <mxCell id="72" value="&lt;div style=&quot;color: rgb(212, 212, 212); background-color: rgb(30, 30, 30); font-family: Consolas, &amp;quot;Courier New&amp;quot;, monospace; line-height: 24px;&quot;&gt;&lt;span style=&quot;color: #6a9955;&quot;&gt;终点的G值不是无穷大时，就是找到了最好路径&lt;/span&gt;&lt;/div&gt;&lt;div style=&quot;color: rgb(212, 212, 212); background-color: rgb(30, 30, 30); font-family: Consolas, &amp;quot;Courier New&amp;quot;, monospace; line-height: 24px;&quot;&gt;&lt;div style=&quot;line-height: 24px;&quot;&gt;&lt;div&gt;bestPath = &lt;span style=&quot;color: #dcdcaa;&quot;&gt;constructPath&lt;/span&gt;(startCell, goalCell, g_score);&lt;/div&gt;&lt;div&gt;&amp;nbsp; &amp;nbsp; &amp;nbsp; &lt;span style=&quot;color: #c586c0;&quot;&gt;return&lt;/span&gt; bestPath;&lt;/div&gt;&lt;/div&gt;&lt;/div&gt;" style="rounded=0;whiteSpace=wrap;html=1;fontSize=18;" vertex="1" parent="1">
                    <mxGeometry x="-2440" y="1330" width="580" height="90" as="geometry"/>
                </mxCell>
                <mxCell id="74" value="" style="edgeStyle=elbowEdgeStyle;elbow=horizontal;endArrow=classic;html=1;curved=0;rounded=0;endSize=8;startSize=8;fontSize=18;exitX=0;exitY=0.5;exitDx=0;exitDy=0;" edge="1" parent="1" source="50">
                    <mxGeometry width="50" height="50" relative="1" as="geometry">
                        <mxPoint x="-1320" y="1690" as="sourcePoint"/>
                        <mxPoint x="-2680" y="150" as="targetPoint"/>
                        <Array as="points">
                            <mxPoint x="-2610" y="1580"/>
                        </Array>
                    </mxGeometry>
                </mxCell>
                <mxCell id="75" value="&lt;div style=&quot;color: rgb(212, 212, 212); background-color: rgb(30, 30, 30); font-family: Consolas, &amp;quot;Courier New&amp;quot;, monospace; line-height: 24px;&quot;&gt;&lt;div&gt;&lt;span style=&quot;color: #6a9955;&quot;&gt;这段代码是用于构建路径的，主要包括以下内容：&lt;/span&gt;&lt;/div&gt;&lt;div&gt;&lt;span style=&quot;color: #6a9955;&quot;&gt;根据起点和终点，利用A*算法等搜索最优路径，并获取每个节点的代价值g_score。&lt;/span&gt;&lt;/div&gt;&lt;div&gt;&lt;span style=&quot;color: #6a9955;&quot;&gt;根据g_score数组，逆向生成可行的最优路径bestPath和原始路径path。&lt;/span&gt;&lt;/div&gt;&lt;div&gt;&lt;span style=&quot;color: #6a9955;&quot;&gt;&amp;nbsp; 在进行路径构建时，首先会使用A*算法等搜索最优路径，并记录每个节点的代价值g_score。&lt;/span&gt;&lt;/div&gt;&lt;/div&gt;" style="rounded=0;whiteSpace=wrap;html=1;fontSize=18;" vertex="1" parent="1">
                    <mxGeometry x="-3250" y="60" width="570" height="170" as="geometry"/>
                </mxCell>
            </root>
        </mxGraphModel>
    </diagram>
</mxfile>